<svg version="1" xmlns="http://www.w3.org/2000/svg" width="933.333" height="933.333" viewBox="0 0 700.000000 700.000000"><path d="M196.5 118.7c-19.3 3.3-34 11.5-44.4 24.7l-3.1 3.9V123h-43v252l23.3-.2 23.2-.3.2-41.5c0-22.8.2-42.1.2-42.8.1-.8 1.5.1 3.4 2 8.4 8.6 20.7 15.4 32.7 18.2 6.3 1.5 25.7 1.5 32.9.1 19.4-3.8 41.9-18.5 53.5-34.9 7.3-10.1 14.2-24.8 16-33.9 2.2-10.7 2.8-15.2 3-23.8 1.3-43-22.4-80-60.4-94.3-3.6-1.3-7.9-2.6-9.5-2.9-1.7-.3-4.1-.8-5.5-1.1-2.9-.7-19.5-1.4-22.5-.9zm18 46.3c15.6 5.3 27 18.5 31 35.8 1.7 7.4 1.7 22.8-.1 29.5-6.3 24.1-25.2 38.7-49.4 38.1-7.4-.2-9.8-.6-15.7-2.8-10.2-3.6-19.1-10.4-25-18.9l-2.7-3.9.1-27.9.1-27.9 3.8-5.1c6.8-8.9 18.9-16.6 29.6-18.9 6.6-1.4 21.4-.4 28.3 2zM405.9 119.1c-7.4 1-15.9 4.1-22.8 8.1-5.6 3.4-15.7 12.7-20.1 18.6l-2.5 3.4.1-13.1V123H317l.2 92.2.3 92.2 23.1.1h23.1V185.2l3.7-5c5.1-7 9.9-11 17.6-14.6 5.9-2.8 7.4-3.1 16-3 10.5.1 14.6 1.3 21 6.4 5.4 4.3 8.6 11.4 10.6 23.5.1.5.2 26.6.3 58l.1 57 22.3-.1c12.2-.1 22.7-.2 23.3-.3.7-.1 1-18.7 1-60.7l-.1-60.7 2.4-3.6c7.9-11.9 19-18.8 32.2-19.8 7.2-.6 16 1.4 21.7 4.9 6.1 3.8 11.4 14 12.6 24.8.3 2.5.5 29.5.5 60l.1 55.5 21.7-.1c12-.1 22.5-.2 23.3-.3 1.4-.1 1.5-7.4 1.4-63.9-.1-61.2-.3-67.8-2.5-76.7-8.4-34-38.7-52.9-75.6-47-5.9.9-17.1 5.1-23.1 8.7-6.3 3.8-17.4 14.3-19.7 18.8-.8 1.6-1.7 3-1.9 3-.2 0-1.8-2.2-3.6-5-4.2-6.6-13.2-14.8-20.6-18.7-11.7-6.2-28.5-9.1-42.5-7.2zM419.8 335.7c-1.7 2-63.7 105.5-68.4 114.3-3.1 5.7-7 15.6-8 20-3 14.3-2.8 25.6.5 37.3 7.6 26.4 29.7 46.2 55.1 49.3 36.6 4.5 65.9-12.8 77.1-45.4 3.6-10.4 5.1-25.5 3.5-34.7-.3-1.7-.8-4.5-1.1-6.3-1.2-7.3-7.8-21.6-12.8-27.6-13.1-16.1-28.7-23.9-50.2-25.2-6.2-.4-10.6-.1-14.2.9-2.9.8-5.3 1.2-5.3 1 0-.3.8-1.7 1.9-3.1 3.9-5.7 43.1-68.4 43.1-69-.1-.4-3.3-2.7-7.2-5.2-3.9-2.5-8.3-5.3-9.8-6.3-2.6-1.6-2.8-1.6-4.2 0zm2.7 106.7c7.6 2 12.8 5 18.8 10.8 18.4 18.1 17.5 51.9-1.7 69.6-8.1 7.4-17.9 11-29.6 10.7-9.3-.2-16.4-2.4-23.3-6.9-9.8-6.5-16.6-17.1-19.3-29.7-.6-3.2-.6-17.1 0-19 .3-.7.8-2.7 1-4.4 1.4-7.8 9-19.1 17-25.1 8.7-6.5 25.3-9.2 37.1-6zM247.4 338.6c-18.6 3.2-35.5 15-45.1 31.5-5 8.7-5 9.1.5 11.3 2.6 1.1 7.3 3.2 10.4 4.7 6.3 3 5.9 3.1 10-4.1 8.9-15.4 27.4-23.7 44.9-19.9 11.6 2.5 22.9 12.1 26.8 22.8 2.4 6.7 3 16.9 1.2 22.9-4.5 15.2-19 24.6-39.6 25.6-4.4.2-8.2.5-8.5.5-.3.1-.5 5.2-.5 11.5v11.3l12 .6c23.3 1 35.4 8.1 41 24.2 2.5 7 2.3 19.4-.3 26.3-7.2 18.8-28.4 29.2-51.3 25-13.4-2.4-26.1-12.7-32.8-26.3-1.9-3.9-3.5-7.1-3.6-7.3-.1-.1-5.2 2.1-11.4 5l-11.1 5.3 3.7 7.5c12.9 26.5 35.5 40.4 65.4 40.2 11.8 0 17-.8 26.7-4.1 19.6-6.8 32.9-19.7 39.3-38.1 3-8.6 3.5-27.3 1-37-3.6-14.3-13.2-27.2-23.9-32l-5.2-2.4 3.9-2.5c5.4-3.6 12.3-11.2 15.5-17.1 3.5-6.4 6.6-18.8 6.6-26.5 0-3.4-.9-9.7-2-13.9-8.1-31.6-39.6-50.9-73.6-45zM558 338.1c-9.2 1.5-11.4 2-17.4 4.5-26.8 11.3-45.1 42.4-49.4 83.9-1.4 13.8-.7 42 1.3 51.5.3 1.4.8 3.8 1.1 5.5 2.8 15.8 8.8 30.9 16.7 42.7 5.6 8.3 9.1 12.2 15.7 17.3 13.3 10.2 27.1 14.5 44.9 13.8 26.4-1 46.6-15.1 59.6-41.8 9.4-19.3 13.9-41.1 13.9-68-.1-55.2-20.5-95.3-54.1-106.4-10-3.4-22.6-4.5-32.3-3zm27.4 27.3c15.6 7.6 26.1 25.3 31.1 52.1 2.6 14 2.7 44.4.1 58.5-6.6 36.6-22.7 56.4-46.9 57.5-17.4.9-32-8.2-41.1-25.5-20.7-39.2-15.8-108.3 9.3-134 9.3-9.5 18.1-13 31.4-12.6 7.7.3 9.6.7 16.1 4zM77.3 413.9c-7.1 2.4-12.7 6.5-16.3 11.9-10.7 16.1-5.1 36.9 12.3 45.9 4.4 2.3 6.5 2.7 13.2 2.7 10.3 0 16.8-2.7 22.9-9.5 5.3-5.9 7.3-9.9 8.4-17 3.5-22.4-19-41.3-40.5-34z"/><path d="M163.7 413.1c-8.7 2-16.4 8.6-20.9 17.8-3.1 6.3-3.1 18.4 0 25.3 2.7 6.1 9.3 12.7 15.7 15.8 7 3.4 19 3.5 25.6.2 7-3.4 12.2-8.4 15.4-14.8 3.9-7.8 4.1-19.2.6-26.8-2.9-6.2-9.9-13.2-15.9-15.7-5.3-2.3-14.9-3.2-20.5-1.8z"/></svg>